<?xml version="1.0" standalone="no"?>
<!DOCTYPE svg PUBLIC "-//W3C//DTD SVG 20010904//EN"
 "http://www.w3.org/TR/2001/REC-SVG-20010904/DTD/svg10.dtd">
<svg version="1.0" xmlns="http://www.w3.org/2000/svg"
 width="512.000000pt" height="512.000000pt" viewBox="0 0 512.000000 512.000000"
 preserveAspectRatio="xMidYMid meet">

<g transform="translate(0.000000,512.000000) scale(0.100000,-0.100000)"
fill="#a475fd" stroke="none">
<path d="M70 4818 c-92 -62 -90 -182 4 -252 26 -20 42 -21 351 -24 289 -3 324
-5 338 -20 11 -12 626 -2263 692 -2534 7 -26 5 -28 -23 -28 -47 0 -147 -35
-201 -69 -156 -100 -242 -290 -213 -467 29 -173 152 -317 319 -373 52 -17 87
-21 208 -21 80 0 145 -2 145 -5 0 -3 -9 -38 -20 -77 -36 -129 -22 -266 38
-388 36 -73 151 -189 223 -224 170 -82 357 -75 514 19 109 66 185 160 226 282
38 111 31 265 -17 381 -5 9 93 12 466 12 l472 0 -7 -22 c-29 -93 -36 -133 -36
-206 0 -145 50 -268 153 -370 101 -102 223 -152 368 -152 238 0 438 152 505
384 26 88 23 216 -8 303 l-24 69 28 17 c96 55 90 201 -11 254 l-43 23 -1539 0
c-1511 0 -1539 0 -1577 20 -114 57 -112 239 2 293 32 16 158 17 1515 17 959 0
1498 4 1533 10 114 22 219 101 268 203 11 23 106 416 212 872 211 914 206 885
154 990 -28 59 -73 103 -138 137 -42 23 -46 23 -587 29 -300 4 -1056 8 -1680
9 -624 1 -1202 5 -1285 9 l-150 6 -91 339 c-50 186 -101 357 -112 380 -34 69
-88 123 -160 158 l-67 33 -355 3 -356 3 -34 -23z m1700 -1208 l236 0 42 -322
c23 -178 42 -331 42 -340 0 -17 -20 -18 -288 -18 l-289 0 -90 337 c-50 186
-89 342 -86 347 3 5 48 6 102 2 53 -3 202 -6 331 -6z m1200 -340 l0 -340 -285
0 -284 0 -6 33 c-6 36 -85 631 -85 641 0 3 149 6 330 6 l330 0 0 -340z m960
323 c-1 -10 -20 -162 -43 -338 l-43 -320 -287 -3 -287 -2 0 340 0 340 330 0
c308 0 330 -1 330 -17z m886 -10 c-3 -10 -37 -157 -76 -327 -39 -170 -73 -313
-76 -318 -6 -10 -514 -11 -514 0 -1 4 18 154 42 335 l42 327 294 0 c275 0 293
-1 288 -17z m-2638 -1275 c24 -178 43 -329 42 -335 0 -16 -374 -18 -414 -3
-15 5 -33 24 -41 42 -14 32 -165 587 -165 608 0 7 91 10 268 10 l268 0 42
-322z m792 -13 l0 -335 -220 0 -220 0 -4 23 c-5 21 -86 628 -86 641 0 3 119 6
265 6 l265 0 0 -335z m830 323 c0 -21 -81 -633 -85 -645 -3 -10 -57 -13 -225
-13 l-220 0 0 335 0 335 265 0 c196 0 265 -3 265 -12z m790 -1 c0 -21 -129
-579 -141 -608 -17 -43 -45 -49 -246 -49 l-186 0 6 38 c3 20 22 165 42 322 20
157 38 291 41 298 5 18 484 18 484 -1z m-2310 -1620 c132 -67 157 -253 47
-355 -54 -49 -102 -65 -178 -60 -79 6 -134 43 -171 117 -102 200 100 399 302
298z m1845 22 c92 -23 166 -118 166 -214 0 -130 -92 -224 -219 -225 -131 0
-221 91 -222 223 0 120 92 216 218 226 7 1 33 -4 57 -10z"/>
</g>
</svg>
